<svg width="98px" height="48px" viewBox="0 0 98 48" version="1.1" xmlns="http://www.w3.org/2000/svg" xmlns:xlink="http://www.w3.org/1999/xlink">
  <!-- Generator: Sketch 49.3 (51167) - http://www.bohemiancoding.com/sketch -->
  <g id="Page-1" stroke="none" stroke-width="1" fill="none" fill-rule="evenodd">
    <g id="Goodmonday_signature_from_ai" transform="translate(0.000000, -7.000000)" fill="#313C52">
      <g id="Group-25" transform="translate(0.000000, 7.000000)">
          <path d="M13.4209,6.5175 L10.6099,6.5175 C10.3209,4.3625 8.5339,3.4175 6.8529,3.4175 C5.0139,3.4175 3.0699,4.5465 3.0699,7.1215 L3.0699,13.0595 C3.0699,15.6335 5.0139,16.7635 6.8529,16.7635 C8.6919,16.7635 10.6359,15.6335 10.6359,13.0595 L10.6359,11.8765 L6.8529,11.8765 L6.8529,9.1705 L13.4469,9.1705 L13.4469,13.0595 C13.4469,17.0265 10.7939,19.5485 6.8529,19.5485 C2.9119,19.5485 0.2589,17.0265 0.2589,13.0595 L0.2589,7.1215 C0.2589,3.1545 2.9119,0.6325 6.8529,0.6325 C10.5839,0.6325 13.1579,2.8915 13.4209,6.5175" id="Fill-1"></path>
          <path d="M26.5033,7.1216 C26.5033,4.5466 24.5593,3.4176 22.7203,3.4176 C20.8813,3.4176 18.9363,4.5466 18.9363,7.1216 L18.9363,13.0586 C18.9363,15.6336 20.8813,16.7636 22.7203,16.7636 C24.5593,16.7636 26.5033,15.6336 26.5033,13.0586 L26.5033,7.1216 Z M16.1253,7.1216 C16.1253,3.1546 18.7793,0.6326 22.7203,0.6326 C26.6603,0.6326 29.3143,3.1546 29.3143,7.1216 L29.3143,13.0586 C29.3143,17.0256 26.6603,19.5486 22.7203,19.5486 C18.7793,19.5486 16.1253,17.0256 16.1253,13.0586 L16.1253,7.1216 Z" id="Fill-3"></path>
          <path d="M42.4752,7.1216 C42.4752,4.5466 40.5312,3.4176 38.6922,3.4176 C36.8532,3.4176 34.9092,4.5466 34.9092,7.1216 L34.9092,13.0586 C34.9092,15.6336 36.8532,16.7636 38.6922,16.7636 C40.5312,16.7636 42.4752,15.6336 42.4752,13.0586 L42.4752,7.1216 Z M32.0982,7.1216 C32.0982,3.1546 34.7512,0.6326 38.6922,0.6326 C42.6332,0.6326 45.2862,3.1546 45.2862,7.1216 L45.2862,13.0586 C45.2862,17.0256 42.6332,19.5486 38.6922,19.5486 C34.7512,19.5486 32.0982,17.0256 32.0982,13.0586 L32.0982,7.1216 Z" id="Fill-5"></path>
          <path d="M55.2159,16.5005 C57.0549,16.5005 58.9989,15.3185 58.9989,12.7435 L58.9989,7.4375 C58.9989,4.8625 57.0549,3.6795 55.2159,3.6795 L51.4329,3.6795 L51.4329,16.5005 L55.2159,16.5005 Z M48.6219,19.2855 L48.6219,0.8955 L55.2159,0.8955 C59.1569,0.8955 61.8099,3.4175 61.8099,7.3845 L61.8099,12.7965 C61.8099,16.7635 59.1569,19.2855 55.2159,19.2855 L48.6219,19.2855 Z" id="Fill-7"></path>
          <polygon id="Fill-9" points="13.447 28.7707 16.258 28.7707 16.258 47.1617 13.474 47.1617 13.474 34.3937 9.69 42.2217 7.378 42.2217 3.595 34.3937 3.595 47.1617 0.81 47.1617 0.81 28.7707 3.622 28.7707 8.534 38.9377"></polygon>
          <path d="M29.9709,34.9976 C29.9709,32.4226 28.0269,31.2936 26.1879,31.2936 C24.3489,31.2936 22.4049,32.4226 22.4049,34.9976 L22.4049,40.9356 C22.4049,43.5096 24.3489,44.6396 26.1879,44.6396 C28.0269,44.6396 29.9709,43.5096 29.9709,40.9356 L29.9709,34.9976 Z M19.5939,34.9976 C19.5939,31.0306 22.2469,28.5086 26.1879,28.5086 C30.1279,28.5086 32.7819,31.0306 32.7819,34.9976 L32.7819,40.9356 C32.7819,44.9026 30.1279,47.4236 26.1879,47.4236 C22.2469,47.4236 19.5939,44.9026 19.5939,40.9356 L19.5939,34.9976 Z" id="Fill-11"></path>
          <polygon id="Fill-13" points="49.3056 47.1612 46.4946 47.1612 38.9286 33.9722 38.9286 47.1612 36.1176 47.1612 36.1176 28.7702 38.9286 28.7702 46.4946 41.9592 46.4946 28.7702 49.3056 28.7702"></polygon>
          <path d="M59.7867,44.3766 C61.6257,44.3766 63.5697,43.1936 63.5697,40.6196 L63.5697,35.3126 C63.5697,32.7376 61.6257,31.5556 59.7867,31.5556 L56.0037,31.5556 L56.0037,44.3766 L59.7867,44.3766 Z M53.1927,47.1616 L53.1927,28.7706 L59.7867,28.7706 C63.7277,28.7706 66.3807,31.2936 66.3807,35.2606 L66.3807,40.6726 C66.3807,44.6396 63.7277,47.1616 59.7867,47.1616 L53.1927,47.1616 Z" id="Fill-15"></path>
          <path d="M78.1242,40.1204 L75.5752,32.8164 L73.0272,40.1204 L78.1242,40.1204 Z M79.0172,42.7204 L72.1342,42.7204 L70.5842,47.1614 L67.6942,47.1614 L74.1302,28.7704 L77.0202,28.7704 L83.4572,47.1614 L80.5672,47.1614 L79.0172,42.7204 Z" id="Fill-17"></path>
          <polygon id="Fill-19" points="91.207 40.1471 91.207 47.1611 88.396 47.1611 88.396 40.1471 81.933 28.7711 85.033 28.7711 89.815 37.2301 94.596 28.7711 97.696 28.7711"></polygon>
          <path d="M39.2392,1.2033 C38.9012,1.2033 38.6282,1.4773 38.6282,1.8143 L39.8502,1.8143 C39.8502,1.4773 39.5772,1.2033 39.2392,1.2033" id="Fill-21"></path>
          <path d="M38.6584,1.621 C38.6584,1.514 38.5714,1.427 38.4644,1.427 L38.4644,1.814 C38.5714,1.814 38.6584,1.728 38.6584,1.621" id="Fill-23"></path>
      </g>
    </g>
  </g>
</svg>
